<mxfile host="app.diagrams.net" modified="2024-07-18T15:48:28.313Z" agent="Mozilla/5.0 (Macintosh; Intel Mac OS X 10_15_7) AppleWebKit/537.36 (KHTML, like Gecko) Chrome/125.0.0.0 Safari/537.36" version="24.7.1" etag="NSCmHvXyLvOdnV4Ol6GJ" type="github">
  <diagram name="ページ1" id="EwPmzbgnAozVBeB_Gbhv">
    <mxGraphModel>
      <root>
        <mxCell id="0" />
        <mxCell id="1" parent="0" />
      </root>
    </mxGraphModel>
  </diagram>
</mxfile>
